<?xml version="1.0" encoding="UTF-8" standalone="no"?>
<!DOCTYPE svg PUBLIC "-//W3C//DTD SVG 1.1//EN"
 "http://www.w3.org/Graphics/SVG/1.1/DTD/svg11.dtd">
<!-- Generated by graphviz version 12.2.1 (20241206.2353)
 -->
<!-- Title: G Pages: 1 -->
<svg width="90pt" height="198pt"
 viewBox="0.00 0.00 90.00 198.00" xmlns="http://www.w3.org/2000/svg" xmlns:xlink="http://www.w3.org/1999/xlink">
<g id="graph0" class="graph" transform="scale(1 1) rotate(0) translate(4 194)">
<title>G</title>
<polygon fill="white" stroke="none" points="-4,4 -4,-194 86,-194 86,4 -4,4"/>
<!-- roles -->
<g id="node1" class="node">
<title>roles</title>
<text text-anchor="start" x="32" y="-50.35" font-family="Bitstream-Vera Sans" font-size="7.00">roles</text>
<polygon fill="none" stroke="black" points="16.5,-44 16.5,-46 65.5,-46 65.5,-44 16.5,-44"/>
<text text-anchor="start" x="18.5" y="-35.35" font-family="Bitstream-Vera Sans" font-size="7.00">&#45; id</text>
<text text-anchor="start" x="18.5" y="-22.35" font-family="Bitstream-Vera Sans" font-size="7.00">&#45; name</text>
<text text-anchor="start" x="18.5" y="-9.35" font-family="Bitstream-Vera Sans" font-size="7.00">&#45; description</text>
<polygon fill="none" stroke="black" points="15.5,-4 15.5,-60 66.5,-60 66.5,-4 15.5,-4"/>
</g>
<!-- users -->
<g id="node2" class="node">
<title>users</title>
<text text-anchor="start" x="31.25" y="-176.35" font-family="Bitstream-Vera Sans" font-size="7.00">users</text>
<polygon fill="none" stroke="black" points="9,-170 9,-172 73,-172 73,-170 9,-170"/>
<text text-anchor="start" x="11" y="-161.35" font-family="Bitstream-Vera Sans" font-size="7.00">&#45; id</text>
<text text-anchor="start" x="11" y="-148.35" font-family="Bitstream-Vera Sans" font-size="7.00">&#45; username</text>
<text text-anchor="start" x="11" y="-135.35" font-family="Bitstream-Vera Sans" font-size="7.00">&#45; email</text>
<text text-anchor="start" x="11" y="-122.35" font-family="Bitstream-Vera Sans" font-size="7.00">&#45; password_hash</text>
<text text-anchor="start" x="11" y="-109.35" font-family="Bitstream-Vera Sans" font-size="7.00">&#45; role_id</text>
<polygon fill="none" stroke="black" points="8,-104 8,-186 74,-186 74,-104 8,-104"/>
</g>
<!-- users&#45;&gt;roles -->
<g id="edge1" class="edge">
<title>users&#45;&gt;roles</title>
<path fill="none" stroke="black" d="M41,-89.77C41,-84.08 41,-78.37 41,-72.89"/>
<polygon fill="black" stroke="black" points="41,-89.8 36.5,-99.8 41,-95.13 41,-99.46 41,-99.46 41,-99.46 41,-95.13 45.5,-99.8 41,-89.8"/>
<ellipse fill="none" stroke="black" cx="41" cy="-68.4" rx="4" ry="4"/>
<text text-anchor="middle" x="33.5" y="-66.25" font-family="Bitstream-Vera Sans" font-size="7.00">+ id</text>
<text text-anchor="middle" x="24.5" y="-93.48" font-family="Bitstream-Vera Sans" font-size="7.00">+ role_id</text>
</g>
</g>
</svg>
